<svg width="303" height="339" viewBox="0 0 303 339" fill="none" xmlns="http://www.w3.org/2000/svg">
<path d="M93.9635 153.109C98.9752 153.109 103.054 149.458 103.054 144.97C103.054 140.487 98.9752 136.831 93.9635 136.831C88.9519 136.831 84.8735 140.482 84.8735 144.97C84.8705 149.458 88.9519 153.109 93.9635 153.109Z" fill="white"/>
<path d="M45.0778 142.312C38.6936 143.272 35.4575 146.7 35.4575 152.493V183.903C35.4575 189.702 38.6936 193.121 45.0778 194.084L56.007 195.733C60.5277 204.905 67.5573 213.361 76.4807 220.361L83.5769 249.263C84.9617 254.898 88.7673 257.64 95.2182 257.64H113.419C119.776 257.64 123.655 254.966 125.273 249.461L127.857 240.695C137.49 241.845 147.24 241.81 156.77 240.622L158.894 249.265C160.278 254.904 164.084 257.645 170.538 257.645H188.736C195.102 257.645 198.977 254.969 200.589 249.469L209.707 218.544C225.357 205.382 233.965 188.346 233.965 170.452C233.965 168.711 233.859 166.994 233.695 165.283C239.607 163.951 244.488 162.389 248.4 160.683C252.424 162.321 257.402 163.33 263.386 163.398C263.407 163.398 263.426 163.398 263.444 163.398C265.692 163.398 267.531 161.776 267.552 159.761C267.586 157.73 265.762 156.062 263.489 156.035C261.244 156.008 259.193 155.826 257.347 155.517C265.001 149.529 265.244 143.34 264.941 140.791C264.144 134.138 258.059 129.121 250.79 129.121C241.973 129.121 235.28 135.394 235.219 143.709C235.189 147.855 236.913 152.168 240.552 155.696C238.186 156.512 235.498 157.269 232.517 157.974C224.857 124.703 187.185 99.3595 141.98 99.3595C129.875 99.3595 118.134 101.149 107.035 104.678C93.1002 93.5287 75.0717 91.812 65.2939 91.812L64.2546 91.8201C59.5551 91.8798 57.9765 94.2718 57.5159 95.2942C57.0432 96.3438 56.3251 99.1181 59.8339 102.229C64.3516 106.229 71.866 114.059 73.4537 123.049C67.4452 128.234 62.4942 134.011 58.6946 140.262L45.0778 142.312ZM250.781 136.479C253.787 136.479 256.411 138.708 256.754 141.564C257.126 144.682 254.848 148.634 248.457 152.227C245.027 149.911 243.425 146.809 243.446 143.744C243.467 140.243 245.773 136.479 250.781 136.479ZM65.0485 145.252C68.8148 138.616 74.0324 132.53 80.556 127.168L82.0347 125.953L81.8771 124.166C80.9499 113.692 73.6082 104.67 68.0179 99.2239C77.3806 99.5575 92.2337 101.789 103.163 111.534L105.054 113.218L107.544 112.361C118.41 108.621 129.997 106.725 141.977 106.725C188.163 106.725 225.729 135.312 225.729 170.452C225.729 186.594 217.745 202.011 203.256 213.855L202.362 214.587L192.627 247.6C191.96 249.886 191.378 250.285 188.733 250.285H170.535C167.95 250.285 167.478 249.946 166.932 247.692L163.124 232.201L159.233 232.822C148.207 234.577 136.702 234.629 125.512 232.939L121.806 232.37L117.322 247.589C116.649 249.876 116.065 250.277 113.425 250.277H95.2243C92.6427 250.277 92.173 249.938 91.6186 247.684L83.9284 216.369L82.8679 215.561C73.8234 208.705 66.8604 200.232 62.7366 191.063L61.8761 189.154L46.4443 186.822C43.9718 186.45 43.687 186.154 43.687 183.903V152.493C43.687 150.247 43.9718 149.949 46.4473 149.575L64.1153 146.906L65.0485 145.252Z" fill="white"/>
<path d="M45.0778 142.312C38.6936 143.272 35.4575 146.7 35.4575 152.493V183.903C35.4575 189.702 38.6936 193.121 45.0778 194.084L56.007 195.733C60.5277 204.905 67.5573 213.361 76.4807 220.361L83.5769 249.263C84.9617 254.898 88.7673 257.64 95.2182 257.64H113.419C119.776 257.64 123.655 254.966 125.273 249.461L127.857 240.695C137.49 241.845 147.24 241.81 156.77 240.622L158.894 249.265C160.278 254.904 164.084 257.645 170.538 257.645H188.736C195.102 257.645 198.977 254.969 200.589 249.469L209.707 218.544C225.357 205.382 233.965 188.346 233.965 170.452C233.965 168.711 233.859 166.994 233.695 165.283C239.607 163.951 244.488 162.389 248.4 160.683C252.424 162.321 257.402 163.33 263.386 163.398C263.407 163.398 263.426 163.398 263.444 163.398C265.692 163.398 267.531 161.776 267.552 159.761C267.586 157.73 265.762 156.062 263.489 156.035C261.244 156.008 259.193 155.826 257.347 155.517C265.001 149.529 265.244 143.34 264.941 140.791C264.144 134.138 258.059 129.121 250.79 129.121C241.973 129.121 235.28 135.394 235.219 143.709C235.189 147.855 236.913 152.168 240.552 155.696C238.186 156.512 235.498 157.269 232.517 157.974C224.857 124.703 187.185 99.3595 141.98 99.3595C129.875 99.3595 118.134 101.149 107.035 104.678C93.1002 93.5287 75.0717 91.812 65.2939 91.812L64.2546 91.8201C59.5551 91.8798 57.9765 94.2718 57.5159 95.2942C57.0432 96.3438 56.3251 99.1181 59.8339 102.229C64.3516 106.229 71.866 114.059 73.4537 123.049C67.4452 128.234 62.4942 134.011 58.6946 140.262L45.0778 142.312ZM250.781 136.479C253.787 136.479 256.411 138.708 256.754 141.564C257.126 144.682 254.848 148.634 248.457 152.227C245.027 149.911 243.425 146.809 243.446 143.744C243.467 140.243 245.773 136.479 250.781 136.479ZM65.0485 145.252C68.8148 138.616 74.0324 132.53 80.556 127.168L82.0347 125.953L81.8771 124.166C80.9499 113.692 73.6082 104.67 68.0179 99.2239C77.3806 99.5575 92.2337 101.789 103.163 111.534L105.054 113.218L107.544 112.361C118.41 108.621 129.997 106.725 141.977 106.725C188.163 106.725 225.729 135.312 225.729 170.452C225.729 186.594 217.745 202.011 203.256 213.855L202.362 214.587L192.627 247.6C191.96 249.886 191.378 250.285 188.733 250.285H170.535C167.95 250.285 167.478 249.946 166.932 247.692L163.124 232.201L159.233 232.822C148.207 234.577 136.702 234.629 125.512 232.939L121.806 232.37L117.322 247.589C116.649 249.876 116.065 250.277 113.425 250.277H95.2243C92.6427 250.277 92.173 249.938 91.6186 247.684L83.9284 216.369L82.8679 215.561C73.8234 208.705 66.8604 200.232 62.7366 191.063L61.8761 189.154L46.4443 186.822C43.9718 186.45 43.687 186.154 43.687 183.903V152.493C43.687 150.247 43.9718 149.949 46.4473 149.575L64.1153 146.906L65.0485 145.252Z" fill="url(#paint0_linear)"/>
<path d="M119.136 127.076C123.248 125.525 130.829 123.453 141.973 123.453C153.102 123.453 160.693 125.53 164.816 127.082C166.91 127.871 169.504 127.366 170.758 125.671C172.013 123.976 171.486 121.698 169.428 120.836C164.698 118.859 155.639 116.084 141.979 116.084C128.302 116.084 119.248 118.859 114.525 120.839C112.467 121.701 111.937 123.982 113.197 125.674C114.449 127.369 117.042 127.868 119.136 127.076Z" fill="white"/>
<path d="M141.97 88.5467C165.071 88.5467 183.866 71.7296 183.866 51.0533C183.872 30.3798 165.071 13.5599 141.97 13.5599C118.873 13.5599 100.081 30.3798 100.081 51.0533C100.084 71.7296 118.873 88.5467 141.97 88.5467ZM141.97 20.9257C160.535 20.9257 175.634 34.4423 175.634 51.0533C175.634 67.6671 160.538 81.1782 141.97 81.1782C123.412 81.1782 108.307 67.6671 108.307 51.0533C108.31 34.4423 123.412 20.9257 141.97 20.9257Z" fill="white"/>
<path d="M141.97 88.5467C165.071 88.5467 183.866 71.7296 183.866 51.0533C183.872 30.3798 165.071 13.5599 141.97 13.5599C118.873 13.5599 100.081 30.3798 100.081 51.0533C100.084 71.7296 118.873 88.5467 141.97 88.5467ZM141.97 20.9257C160.535 20.9257 175.634 34.4423 175.634 51.0533C175.634 67.6671 160.538 81.1782 141.97 81.1782C123.412 81.1782 108.307 67.6671 108.307 51.0533C108.31 34.4423 123.412 20.9257 141.97 20.9257Z" fill="url(#paint1_linear)"/>
<path d="M141.198 62.5658C136.311 62.5658 131.208 60.2525 131.157 60.2335L127.381 66.7776C127.648 66.8996 133.741 69.6604 140.344 69.8882V74.4607H145.352V69.514C152.227 68.177 155.4 63.5801 155.4 58.9778C155.4 53.4671 151.285 49.5482 143.168 47.3379C136.768 45.5914 136.768 43.5873 136.768 42.733C136.768 39.6196 140.513 39.1531 142.743 39.1531C147.628 39.1531 152.739 41.461 152.782 41.48L156.554 34.936C156.312 34.8221 151.237 32.506 145.349 31.9229V27.6461H140.341V31.9609C132.251 32.8043 128.542 37.7673 128.542 42.7357C128.542 48.2519 132.654 52.1707 140.771 54.3837C147.17 56.1357 147.17 58.129 147.17 58.9806C147.173 62.1021 143.428 62.5658 141.198 62.5658Z" fill="white"/>
<defs>
<linearGradient id="paint0_linear" x1="152" y1="229.5" x2="152" y2="-45" gradientUnits="userSpaceOnUse">
<stop stop-color="#898989" stop-opacity="0.7"/>
<stop offset="1" stop-color="white" stop-opacity="0"/>
</linearGradient>
<linearGradient id="paint1_linear" x1="141.973" y1="13.5599" x2="141.973" y2="88.5467" gradientUnits="userSpaceOnUse">
<stop stop-color="white"/>
<stop offset="1" stop-color="#B4B4B4" stop-opacity="0"/>
</linearGradient>
</defs>
</svg>
