<svg width="211" height="243" viewBox="0 0 211 243" fill="none" xmlns="http://www.w3.org/2000/svg">
<path d="M65.4335 109.75C68.9235 109.75 71.7635 107.134 71.7635 103.917C71.7635 100.703 68.9235 98.0826 65.4335 98.0826C61.9436 98.0826 59.1035 100.699 59.1035 103.917C59.1014 107.134 61.9436 109.75 65.4335 109.75Z" fill="white"/>
<path d="M31.3907 102.011C26.9449 102.7 24.6914 105.157 24.6914 109.309V131.825C24.6914 135.981 26.9449 138.432 31.3907 139.122L39.0014 140.304C42.1495 146.879 47.0447 152.94 53.2587 157.958L58.2003 178.675C59.1646 182.715 61.8147 184.68 66.3069 184.68H78.9817C83.4085 184.68 86.1093 182.763 87.236 178.817L89.0359 172.534C95.7435 173.358 102.534 173.333 109.169 172.481L110.649 178.677C111.613 182.719 114.263 184.684 118.757 184.684H131.43C135.863 184.684 138.562 182.765 139.684 178.823L146.033 156.655C156.931 147.221 162.926 135.009 162.926 122.182C162.926 120.934 162.852 119.704 162.738 118.477C166.855 117.523 170.254 116.403 172.978 115.18C175.78 116.354 179.247 117.077 183.414 117.126C183.429 117.126 183.441 117.126 183.454 117.126C185.02 117.126 186.301 115.963 186.315 114.519C186.339 113.063 185.068 111.867 183.486 111.848C181.922 111.829 180.494 111.698 179.209 111.477C184.539 107.184 184.707 102.748 184.496 100.921C183.942 96.1522 179.705 92.5558 174.643 92.5558C168.503 92.5558 163.842 97.0523 163.799 103.013C163.778 105.985 164.979 109.076 167.513 111.605C165.865 112.19 163.994 112.733 161.917 113.238C156.583 89.389 130.35 71.2223 98.8706 71.2223C90.4411 71.2223 82.2649 72.5054 74.5359 75.0345C64.832 67.0427 52.2775 65.8122 45.4686 65.8122L44.7448 65.818C41.4722 65.8608 40.3729 67.5754 40.0522 68.3083C39.723 69.0606 39.223 71.0493 41.6664 73.2791C44.8124 76.1465 50.0452 81.7588 51.1508 88.2032C46.9667 91.9201 43.5189 96.0608 40.873 100.542L31.3907 102.011ZM174.636 97.8299C176.73 97.8299 178.557 99.4278 178.795 101.475C179.055 103.71 177.468 106.543 173.018 109.119C170.63 107.458 169.513 105.235 169.528 103.038C169.543 100.528 171.149 97.8299 174.636 97.8299ZM45.2977 104.119C47.9204 99.3617 51.5538 94.9994 56.0966 91.1561L57.1263 90.2852L57.0166 89.0041C56.3709 81.4964 51.2584 75.0287 47.3655 71.1251C53.8854 71.3642 64.2286 72.9642 71.8394 79.9489L73.156 81.1562L74.8904 80.5419C82.4569 77.8611 90.5255 76.5022 98.8684 76.5022C131.031 76.5022 157.191 96.9939 157.191 122.182C157.191 133.753 151.631 144.805 141.541 153.294L140.919 153.819L134.139 177.483C133.675 179.122 133.27 179.408 131.428 179.408H118.755C116.955 179.408 116.626 179.165 116.246 177.549L113.594 166.445L110.885 166.89C103.207 168.148 95.1949 168.185 87.4027 166.974L84.8222 166.566L81.6994 177.476C81.231 179.114 80.8237 179.402 78.9859 179.402H66.3112C64.5134 179.402 64.1864 179.159 63.8003 177.544L58.4451 155.096L57.7066 154.517C51.4082 149.602 46.5594 143.529 43.6877 136.957L43.0885 135.588L32.3423 133.916C30.6205 133.65 30.4222 133.438 30.4222 131.825V109.309C30.4222 107.7 30.6205 107.486 32.3444 107.217L44.6478 105.305L45.2977 104.119Z" fill="white"/>
<path d="M82.9628 91.09C85.8261 89.978 91.1053 88.4928 98.8658 88.4928C106.616 88.4928 111.901 89.9819 114.773 91.0939C116.231 91.6596 118.037 91.298 118.911 90.083C119.784 88.868 119.417 87.235 117.985 86.6169C114.691 85.1997 108.382 83.211 98.8701 83.211C89.3455 83.211 83.0409 85.1997 79.7514 86.6188C78.3187 87.237 77.9494 88.8719 78.8272 90.0849C79.6986 91.2999 81.5048 91.6576 82.9628 91.09Z" fill="white"/>
<path d="M98.8636 63.4716C114.95 63.4716 128.039 51.4169 128.039 36.5958C128.043 21.7767 114.95 9.72 98.8636 9.72C82.7791 9.72 69.6929 21.7767 69.6929 36.5958C69.695 51.4169 82.7791 63.4716 98.8636 63.4716ZM98.8636 14.9999C111.792 14.9999 122.306 24.6888 122.306 36.5958C122.306 48.5047 111.794 58.1898 98.8636 58.1898C85.9399 58.1898 75.4215 48.5047 75.4215 36.5958C75.4236 24.6888 85.9399 14.9999 98.8636 14.9999Z" fill="white"/>
<path d="M98.3262 44.8481C94.9228 44.8481 91.3695 43.1898 91.3336 43.1762L88.7046 47.8671C88.8903 47.9546 93.1335 49.9336 97.7312 50.0969V53.3745H101.219V49.8286C106.007 48.8702 108.216 45.5751 108.216 42.2762C108.216 38.326 105.35 35.5169 99.6977 33.9325C95.2414 32.6806 95.2414 31.244 95.2414 30.6316C95.2414 28.3999 97.8493 28.0655 99.4023 28.0655C102.804 28.0655 106.363 29.7199 106.393 29.7335L109.02 25.0426C108.851 24.961 105.317 23.3008 101.217 22.8828V19.8171H97.7291V22.91C92.0954 23.5146 89.5127 27.0721 89.5127 30.6336C89.5127 34.5877 92.376 37.3967 98.0287 38.983C102.485 40.2389 102.485 41.6677 102.485 42.2781C102.487 44.5157 99.8791 44.8481 98.3262 44.8481Z" fill="white"/>
</svg>
